PathFileType	4	(X/Y/Z)	C:\Users\WrightLab\Desktop\Jo\P2_Trial13.trc
DataRate	CameraRate	NumFrames	NumMarkers	Units	OrigDataRate	OrigDataStartFrame	OrigNumFrames
100.00	100.00	       13	19	mm	100.00	284	       567
Frame#	Time	Headset_Front			Headset_Back			Headset_Left			Headset_Right			Left_Shoulder			Right_Shoulder			Sternum			C7			Left Elbow			Right Elbow			Left Wrist			Right Wrist			Left ASIS			Right ASIS			S2			Left Knee			Right Knee			Left Ankle			Right Ankle			
		X1	Y1	Z1	X2	Y2	Z2	X3	Y3	Z3	X4	Y4	Z4	X5	Y5	Z5	X6	Y6	Z6	X7	Y7	Z7	X8	Y8	Z8	X9	Y9	Z9	X10	Y10	Z10	X11	Y11	Z11	X12	Y12	Z12	X13	Y13	Z13	X14	Y14	Z14	X15	Y15	Z15	X16	Y16	Z16	X17	Y17	Z17	X18	Y18	Z18	X19	Y19	Z19	

284	2.830	151.21886	1428.76477	772.96924	137.20479	1685.58545	603.58710	250.63951	1562.06921	642.07062	41.90384	1525.97986	734.08496	218.09966	1471.17505	432.40521	-30.48525	1442.92419	650.06836	145.05237	1337.90234	587.13428	16.64182	1448.59045	468.01602	345.94250	1133.90698	399.09937	-152.16238	1122.97974	607.92432	403.05112	901.64642	440.71091	-158.15625	881.95947	665.26184	197.26471	1052.24011	560.35913	112.90872	1042.94824	659.92389	-40.02060	961.92151	443.20441	216.08490	514.09558	434.82251	80.54230	588.55560	685.75989	56.06849	280.55942	242.52026	228.95180	202.22440	527.00159	
285	2.840	155.90495	1430.84692	780.22778	143.53116	1687.99609	611.06689	256.25629	1564.12744	650.40735	47.22286	1528.54919	741.20532	224.66441	1473.32861	440.61160	-25.81418	1444.26904	655.84631	149.64244	1339.96289	595.03680	23.50433	1450.35632	474.37921	351.98062	1135.26831	403.73526	-145.27982	1124.35339	612.65302	408.42584	900.85754	440.94849	-144.13745	887.39612	675.58215	200.86122	1051.83301	563.78650	119.14807	1045.69800	666.70636	-31.45550	963.94092	448.19168	239.04094	520.06641	447.72885	85.53307	592.14105	689.43756	84.63281	285.76331	253.75902	224.44669	203.96161	528.36682	
286	2.850	160.21695	1433.35571	788.03265	149.07985	1690.06323	618.33331	261.72665	1565.90808	658.16937	52.51054	1530.92749	748.11530	231.23422	1475.93079	449.11093	-21.93434	1446.60400	662.22260	154.86491	1342.22107	601.83875	29.71162	1452.02197	481.14557	357.91168	1136.64185	409.83447	-137.95470	1125.18848	616.76202	411.88861	900.55151	439.91785	-129.74330	892.64874	686.09570	211.78210	1056.35461	574.75146	124.79592	1047.50586	673.56702	-23.65404	966.66742	453.57544	261.89951	524.74170	462.27765	89.06966	594.96417	692.70789	114.48525	289.97690	265.48322	219.92290	205.39868	529.50824	
287	2.860	165.33145	1435.54797	796.00433	154.71815	1691.90515	625.23926	266.92526	1567.75793	665.75433	57.61100	1533.08679	755.47754	238.02213	1478.10535	456.78241	-16.89154	1449.01770	668.02966	161.70505	1344.30688	611.13397	36.45625	1453.84424	487.71930	364.09262	1138.14319	413.93680	-131.38005	1125.93604	622.74457	415.11752	901.00024	437.70432	-117.02433	896.99487	698.05682	218.33330	1058.62183	583.55774	130.27406	1050.06384	680.99768	-15.99119	969.20349	458.91266	285.09396	530.22180	475.87393	91.50728	596.81915	694.57019	144.89943	295.51807	276.71860	215.82892	206.40614	531.82379	
288	2.870	170.93562	1437.82422	804.02124	159.62459	1693.44409	632.34552	272.26059	1569.46997	674.23254	62.59433	1535.00500	762.98090	245.07289	1480.23657	465.83273	-12.52399	1451.31763	675.07153	165.47034	1345.30432	617.09930	42.56047	1454.76611	494.36990	370.18695	1139.34155	418.16934	-124.38386	1125.95471	628.53705	418.16879	900.95233	435.60181	-106.39238	900.96509	709.96045	225.90897	1060.96326	592.57520	134.94930	1052.47644	687.67242	-7.41826	971.11255	463.43491	308.27185	533.53748	491.92273	93.20838	597.29248	696.42218	174.32811	300.55783	290.00778	212.38004	206.22496	533.76672	
289	2.880	175.19353	1440.34705	812.34180	164.54732	1694.93164	639.36395	277.35999	1571.16370	681.87354	67.87875	1537.08191	771.08105	251.46205	1481.94373	475.08112	-7.35228	1451.85107	679.87390	170.10077	1346.78040	623.95184	49.24268	1456.33350	500.97186	375.84311	1140.75427	422.49075	-117.30846	1125.52795	635.63135	422.12915	901.18958	433.22906	-97.15234	904.18066	720.62427	232.45490	1063.48413	601.96735	139.67371	1053.30017	694.01111	0.61064	972.80994	468.27740	330.76138	536.11090	505.10492	93.87910	597.68762	698.21942	203.03650	304.64508	301.58951	209.76686	204.79645	536.73193	
290	2.890	179.74306	1442.45483	821.01563	169.88152	1696.08728	646.46002	281.82388	1572.18347	688.58472	72.82495	1539.09473	778.95795	258.29199	1483.88428	483.85486	-3.10503	1451.87134	685.81104	175.37955	1348.39429	631.96460	55.54220	1457.90857	507.89340	381.98309	1141.93286	424.94543	-110.96461	1125.79321	643.68732	425.85431	901.41614	431.40683	-89.23250	907.24500	730.47253	238.67418	1065.50500	609.80255	144.77710	1054.76404	701.96069	9.03360	973.92999	472.85980	352.14999	538.61731	519.43665	94.54358	596.45081	699.63397	231.42519	309.89474	313.75092	206.52280	203.59853	539.20544	
291	2.900	185.07391	1444.28076	829.41382	174.09947	1697.49561	654.11292	287.04199	1573.79260	696.78485	77.47981	1540.59680	786.75549	265.06903	1485.21008	492.84906	2.09047	1454.32043	692.59131	180.84216	1349.56335	639.70526	61.95638	1458.65417	514.76379	387.34824	1143.29895	429.26202	-104.70029	1126.96313	651.68988	429.65137	901.87170	430.11591	-83.15797	910.19489	740.03351	244.56641	1066.91785	617.37787	149.43137	1055.30286	709.03186	18.71156	974.98718	477.50705	372.60434	538.99646	533.10968	94.37785	594.72498	701.96570	257.89572	313.70065	326.00076	204.65341	201.36983	540.95093	
292	2.910	189.15443	1446.21545	837.75366	178.27672	1698.78186	661.82867	291.91400	1575.26855	705.69299	81.90099	1541.85742	794.76898	271.95364	1486.57678	501.51874	7.17049	1454.11279	698.10895	186.19473	1350.29175	647.06793	68.40138	1460.08008	521.72968	392.88318	1144.03296	434.55908	-98.92911	1128.09143	660.29913	434.63757	902.53564	429.26889	-77.94135	911.52350	749.04584	250.53377	1068.40881	626.79626	154.43250	1056.45386	716.23151	27.72228	975.49542	481.52185	393.44958	537.99548	546.49341	94.23156	592.27484	703.57458	282.98093	317.57248	339.03250	203.30463	200.09032	543.46655	
293	2.920	193.74620	1447.96326	846.16663	183.56418	1699.76392	669.46124	296.88235	1577.10913	714.70795	86.57076	1542.82385	802.46362	278.62405	1487.44653	510.33475	12.07009	1455.59033	705.40021	191.12186	1350.91223	654.49243	74.94184	1460.64404	528.88690	398.44177	1144.65625	437.58167	-93.60863	1129.13879	668.56567	436.64462	903.18652	425.71780	-74.39374	912.63873	757.69336	255.35147	1068.72253	635.29327	159.09224	1056.08228	723.81439	36.65735	975.99152	485.38132	412.56244	537.73016	559.31659	92.95677	588.64551	704.16437	306.74728	320.08139	352.32184	202.50845	198.42003	545.27936	
294	2.930	198.07521	1449.02795	854.84106	187.97118	1700.60938	677.65625	301.11618	1578.60303	723.06152	91.15126	1543.54004	809.86273	285.41122	1488.27502	519.89093	16.94267	1456.61694	711.99200	196.87085	1352.11584	662.44446	81.37885	1461.84717	536.26923	403.20712	1145.69543	442.44592	-88.65139	1130.30542	676.49487	441.58597	904.27020	427.14630	-71.63015	913.15320	765.19623	262.08273	1070.09583	643.73590	163.66936	1056.29065	730.00409	46.20523	975.88672	489.51422	429.63113	536.20361	572.75403	92.24030	585.66772	708.63416	327.98224	320.51633	365.56100	203.05444	196.86334	547.17676	
295	2.940	202.69077	1449.66565	863.42236	193.23244	1701.48315	685.71991	305.04376	1579.00537	731.62030	95.43711	1544.17676	817.56714	292.13840	1488.98108	529.64624	21.00139	1455.85461	718.57422	202.05377	1352.44336	670.82648	87.83276	1462.18103	543.80060	408.35229	1146.32092	446.57730	-84.22281	1131.06177	684.95917	445.47955	905.18683	426.61841	-70.49453	914.46191	773.60938	267.22974	1070.63611	651.86914	168.39468	1055.20947	737.61835	56.29778	976.09540	493.23907	445.67252	533.95361	586.69873	90.35953	580.99951	709.49841	347.12149	320.55084	378.74661	203.94402	194.95238	548.17957	
296	2.950	206.07748	1450.54761	871.93005	198.32179	1701.97644	694.19531	309.88184	1580.04871	741.85724	99.73093	1544.28198	825.18488	298.84406	1489.60510	539.15472	26.50664	1457.67175	725.69379	206.80479	1352.33862	679.96118	94.61888	1463.07666	550.96729	413.76263	1147.08936	451.78284	-79.29112	1131.79395	691.96252	448.23520	906.52271	428.86060	-67.90146	914.73981	780.79272	271.67416	1070.23669	659.36072	171.69662	1052.97998	746.04474	65.93342	976.03418	497.40836	460.92944	534.43622	600.44550	89.17635	577.73389	713.98102	365.79037	318.91852	392.78589	205.10468	194.07899	551.32489	
